Coordinates
version=1
nRows=4
nColumns=107
inDegrees=yes

Units are S.I. units (second, meters, Newtons, ...)
If the header above contains a line with 'inDegrees', this indicates whether rotational values are in degrees (yes) or radians (no).

endheader
time	sternoclavicular_r2	sternoclavicular_r3	unrotscap_r3	unrotscap_r2	acromioclavicular_r2	acromioclavicular_r3	acromioclavicular_r1	unrothum_r1	unrothum_r3	unrothum_r2	elv_angle	shoulder_elv	shoulder1_r2	shoulder_rot	elbow_flexion	pro_sup	deviation	flexion	proximal_distal_r1	proximal_distal_r3	cmc_flexion	cmc_abduction	mp_flexion	ip_flexion	mcp2_flexion	mcp2_abduction	pm2_flexion	md2_flexion	mcp3_flexion	mcp3_abduction	pm3_flexion	md3_flexion	mcp4_flexion	mcp4_abduction	pm4_flexion	md4_flexion	mcp5_flexion	mcp5_abduction	pm5_flexion	md5_flexion	bicpt_tx	bicpt_ty	bicpt_tz	bicpt2_tx	bicpt2_ty	bicpt2_tz	ptpt_tx	ptpt_ty	ptpt_tz	FCUpt_tx	FCUpt_ty	FCUpt_tz	EDCpt_tx	EDCpt_ty	EDCpt_tz	APLpt_tx	APLpt_ty	APLpt_tz	FPLpt_tx	FPLpt_ty	FPLpt_tz	FPLpt2_tx	FPLpt2_ty	FPLpt2_tz	PEC1pt2_tx	PEC1pt2_ty	PEC1pt2_tz	PEC1pt3_tx	PEC1pt3_ty	PEC1pt3_tz	PEC2pt2_tx	PEC2pt2_ty	PEC2pt2_tz	PEC2pt3_tx	PEC2pt3_ty	PEC2pt3_tz	PEC3pt2_tx	PEC3pt2_ty	PEC3pt2_tz	PEC3pt3_tx	PEC3pt3_ty	PEC3pt3_tz	DELT2pt2a_tx	DELT2pt2a_ty	DELT2pt2a_tz	DELT2pt2_tx	DELT2pt2_ty	DELT2pt2_tz	LAT1pt2_tx	LAT1pt2_ty	LAT1pt2_tz	LAT1pt3_tx	LAT1pt3_ty	LAT1pt3_tz	LAT2pt2_tx	LAT2pt2_ty	LAT2pt2_tz	LAT2pt3_tx	LAT2pt3_ty	LAT2pt3_tz	LAT3pt2_tx	LAT3pt2_ty	LAT3pt2_tz	LAT3pt3_tx	LAT3pt3_ty	LAT3pt3_tz
      0.00000000	     -0.30517881	      0.12925934	     -0.12925934	      0.30517881	     -0.06179250	      0.49938526	      0.22447024	     -0.22447024	     -0.49938526	      0.06179250	    103.78436121	     72.25379597	     -1.81137882	    -47.61308271	     32.44228515	     85.87065164	      0.36214018	     -0.48969616	      0.38413170	     -0.24484808	     42.41196829	     -1.72248584	     16.65437352	      9.51699249	     96.10154501	     10.37399038	     82.96276355	    159.47095277	    101.21757756	      1.67114392	     84.06451674	     47.10968850	     96.89427871	    -13.11966182	     95.41202098	     34.69452384	     77.77095358	    -14.20738990	     92.35826294	      5.16121966	      0.00097309	     -0.03131838	     -0.00489893	      0.01425326	     -0.01901311	     -0.00109818	      0.00120513	     -0.06900270	     -0.00696734	      0.01272315	     -0.18224211	      0.00008024	     -0.01030445	      0.00357092	     -0.00075307	      0.00030022	      0.00012009	      0.00060044	      0.00038428	      0.00115284	      0.00064847	     -0.00000656	     -0.00006098	     -0.00007318	      0.00236832	      0.00830919	      0.00578031	     -0.00774722	      0.01870572	     -0.01774234	      0.00236832	      0.00830919	      0.00578031	      0.00052183	      0.01734093	     -0.00911201	      0.00379700	      0.00462064	      0.01558695	      0.00000000	      0.00697715	      0.00000000	     -0.00678383	     -0.03135015	     -0.00574809	      0.02461125	     -0.00139246	     -0.01762952	     -0.00084296	      0.01412964	     -0.00578031	      0.00232818	      0.02039164	     -0.01685923	     -0.00565989	      0.01224301	     -0.00517819	     -0.01180146	      0.02585082	     -0.02894168	     -0.02215785	      0.01368809	     -0.00694440	     -0.01469162	      0.02986493	     -0.03616707
      0.03333333	     -0.30560460	      0.12943969	     -0.12943969	      0.30560460	     -0.06187872	      0.50008202	      0.22478342	     -0.22478342	     -0.50008202	      0.06187872	    103.86319694	     72.35460647	     -1.81275476	    -47.55310193	     32.19866512	     85.83802056	      0.35983825	     -0.46591942	      0.38236850	     -0.23295971	     42.20898994	     -2.20783650	     16.45312139	      9.55163936	     95.32570260	     10.29525670	     83.37560342	    157.38733622	    100.02847963	      1.57481822	     83.73110189	     48.50055042	     96.24414765	    -13.03142697	     94.65945786	     36.35007117	     77.47003370	    -14.19100457	     92.60904591	      5.20266653	      0.00096503	     -0.03129046	     -0.00489444	      0.01425662	     -0.01894693	     -0.00110376	      0.00120754	     -0.06900114	     -0.00696471	      0.01271940	     -0.18224322	      0.00007934	     -0.01030054	      0.00356913	     -0.00075202	      0.00029491	      0.00011796	      0.00058981	      0.00037748	      0.00113244	      0.00063700	     -0.00000696	     -0.00006545	     -0.00007854	      0.00237163	      0.00832079	      0.00578837	     -0.00775803	      0.01873182	     -0.01776709	      0.00237163	      0.00832079	      0.00578837	      0.00052256	      0.01736512	     -0.00912473	      0.00380096	      0.00462708	      0.01559723	      0.00000000	      0.00699675	      0.00000000	     -0.00679330	     -0.03139389	     -0.00576437	      0.02459876	     -0.00139021	     -0.01759087	     -0.00084414	      0.01414936	     -0.00578837	      0.00233143	      0.02042010	     -0.01688276	     -0.00566778	      0.01226010	     -0.00518542	     -0.01181793	      0.02588689	     -0.02898206	     -0.02218876	      0.01370719	     -0.00695409	     -0.01471212	      0.02990660	     -0.03621753
      0.06666667	     -0.30613750	      0.12966540	     -0.12966540	      0.30613750	     -0.06198662	      0.50095403	      0.22517539	     -0.22517539	     -0.50095403	      0.06198662	    104.01893426	     72.48077409	     -1.81547289	    -47.62511109	     31.78549815	     85.72138132	      0.35854789	     -0.46450104	      0.38137551	     -0.23225052	     42.15370279	     -2.29983220	     16.41652727	      9.54121797	     95.30267369	     10.30304558	     83.37945665	    157.37642865	     99.91836565	      1.57385107	     83.69036268	     48.50310623	     96.17869208	    -13.01184245	     94.63153241	     36.34774675	     77.47169585	    -14.17491117	     92.61416039	      5.20800424	      0.00095137	     -0.03124310	     -0.00488681	      0.01426862	     -0.01883469	     -0.00112370	      0.00121616	     -0.06899557	     -0.00695532	      0.01270601	     -0.18224716	      0.00007615	     -0.01028654	      0.00356274	     -0.00074829	      0.00029456	      0.00011782	      0.00058912	      0.00037704	      0.00113111	      0.00063625	     -0.00000707	     -0.00006666	     -0.00007999	      0.00237576	      0.00833530	      0.00579847	     -0.00777156	      0.01876448	     -0.01779807	      0.00237576	      0.00833530	      0.00579847	      0.00052347	      0.01739540	     -0.00914064	      0.00380591	      0.00463515	      0.01561006	      0.00000000	      0.00702131	      0.00000000	     -0.00680515	     -0.03144863	     -0.00578479	      0.02461370	     -0.00139291	     -0.01763730	     -0.00084561	      0.01417403	     -0.00579847	      0.00233549	      0.02045570	     -0.01691219	     -0.00567767	      0.01228147	     -0.00519446	     -0.01183854	      0.02593203	     -0.02903260	     -0.02222746	      0.01373109	     -0.00696621	     -0.01473777	      0.02995875	     -0.03628068
      0.10000000	     -0.30638941	      0.12977210	     -0.12977210	      0.30638941	     -0.06203762	      0.50136626	      0.22536068	     -0.22536068	     -0.50136626	      0.06203762	    103.67706925	     72.54041738	     -1.80950622	    -46.46678062	     31.92295012	     84.19014184	      0.37216503	     -0.39714448	      0.39171173	     -0.19857224	     41.73949446	     -1.87244850	     15.95247090	      9.16482922	     93.97589532	     10.47488988	     84.61340982	    142.95742837	     98.10255233	      1.36435773	     83.64528013	     50.42998424	     94.65248722	    -12.90320758	     95.54165340	     35.92125889	     76.95233804	    -14.13482136	    103.76279095	      5.66848023	      0.00095591	     -0.03125886	     -0.00488935	      0.01442330	     -0.01887203	     -0.00138371	      0.00132930	     -0.06892241	     -0.00683197	      0.01253059	     -0.18229857	      0.00003516	     -0.01010279	      0.00347919	     -0.00069998	      0.00027425	      0.00010970	      0.00054850	      0.00035104	      0.00105312	      0.00059238	     -0.00000785	     -0.00007561	     -0.00009073	      0.00237772	      0.00834216	      0.00580324	     -0.00777795	      0.01877992	     -0.01781272	      0.00237772	      0.00834216	      0.00580324	      0.00052390	      0.01740971	     -0.00914816	      0.00380824	      0.00463897	      0.01561611	      0.00000000	      0.00703294	      0.00000000	     -0.00681074	     -0.03147451	     -0.00579445	      0.02436493	     -0.00134960	     -0.01689418	     -0.00084631	      0.01418569	     -0.00580324	      0.00233742	      0.02047254	     -0.01692611	     -0.00568234	      0.01229158	     -0.00519873	     -0.01184828	      0.02595337	     -0.02905649	     -0.02224575	      0.01374239	     -0.00697195	     -0.01474990	      0.02998340	     -0.03631054
